<?xml version="1.0" encoding="iso-8859-1"?>
<!-- Uploaded to: SVG Repo, www.svgrepo.com, Generator: SVG Repo Mixer Tools -->
<svg height="800px" width="800px" version="1.1" id="Capa_1" xmlns="http://www.w3.org/2000/svg" xmlns:xlink="http://www.w3.org/1999/xlink" 
	 viewBox="0 0 502.686 502.686" xml:space="preserve">
<g>
	<g>
		<polygon style="fill:#010002;" points="183.19,327.854 75.962,351.625 33.834,502.664 218.415,502.664 237.742,341.034 
			205.171,305.787 		"/>
		<polygon style="fill:#010002;" points="426.681,351.625 319.366,327.854 297.342,305.809 264.878,341.056 284.184,502.686 
			468.852,502.686 		"/>
		<path style="fill:#010002;" d="M251.332,170.064c72.586,0,131.409-7.291,131.409-16.308c0-1.941-3.236-3.84-8.499-5.565
			C370.273,81.645,370.683,0,251.375,0S132.434,81.645,128.508,148.17c-5.285,1.747-8.564,3.645-8.564,5.587
			C119.944,162.773,178.811,170.064,251.332,170.064z"/>
		<path style="fill:#010002;" d="M360.955,179.943c-23.965,3.904-61.39,6.428-103.928,6.428c-50.109,0-93.229-3.494-115.296-8.607
			c7.787,69.156,53.668,122.544,109.795,122.544C306.985,300.265,352.305,248.021,360.955,179.943z"/>
	</g>
	<g>
	</g>
	<g>
	</g>
	<g>
	</g>
	<g>
	</g>
	<g>
	</g>
	<g>
	</g>
	<g>
	</g>
	<g>
	</g>
	<g>
	</g>
	<g>
	</g>
	<g>
	</g>
	<g>
	</g>
	<g>
	</g>
	<g>
	</g>
	<g>
	</g>
</g>
</svg>